<mxfile host="app.diagrams.net" modified="2022-06-21T15:52:14.845Z" agent="5.0 (Windows)" etag="swmLKJ4Hir5MowV1glyE" version="20.0.1" type="github">
  <diagram id="C5RBs43oDa-KdzZeNtuy" name="Page-1">
    <mxGraphModel dx="2585" dy="1404" grid="0" gridSize="10" guides="1" tooltips="1" connect="1" arrows="1" fold="1" page="0" pageScale="1" pageWidth="827" pageHeight="1169" math="0" shadow="0">
      <root>
        <mxCell id="WIyWlLk6GJQsqaUBKTNV-0" />
        <mxCell id="WIyWlLk6GJQsqaUBKTNV-1" parent="WIyWlLk6GJQsqaUBKTNV-0" />
        <mxCell id="WIyWlLk6GJQsqaUBKTNV-2" value="" style="rounded=1;html=1;jettySize=auto;orthogonalLoop=1;fontSize=11;endArrow=block;endFill=0;endSize=8;strokeWidth=1;shadow=0;labelBackgroundColor=none;edgeStyle=orthogonalEdgeStyle;fontFamily=Vazir;sketch=1;curved=1;" parent="WIyWlLk6GJQsqaUBKTNV-1" source="WIyWlLk6GJQsqaUBKTNV-3" target="WIyWlLk6GJQsqaUBKTNV-6" edge="1">
          <mxGeometry relative="1" as="geometry" />
        </mxCell>
        <mxCell id="WIyWlLk6GJQsqaUBKTNV-3" value="&lt;div style=&quot;font-size: 21px;&quot;&gt;تایید مدرک&lt;/div&gt;" style="rounded=1;whiteSpace=wrap;html=1;fontSize=21;glass=0;strokeWidth=1;shadow=0;fontFamily=Vazir;sketch=1;fontStyle=1" parent="WIyWlLk6GJQsqaUBKTNV-1" vertex="1">
          <mxGeometry x="340" y="90" width="120" height="40" as="geometry" />
        </mxCell>
        <mxCell id="WIyWlLk6GJQsqaUBKTNV-4" value="Yes" style="rounded=1;html=1;jettySize=auto;orthogonalLoop=1;fontSize=11;endArrow=block;endFill=0;endSize=8;strokeWidth=1;shadow=0;labelBackgroundColor=none;edgeStyle=orthogonalEdgeStyle;fontFamily=Vazir;sketch=1;curved=1;" parent="WIyWlLk6GJQsqaUBKTNV-1" source="WIyWlLk6GJQsqaUBKTNV-6" target="WIyWlLk6GJQsqaUBKTNV-10" edge="1">
          <mxGeometry x="0.1997" y="-10" relative="1" as="geometry">
            <mxPoint as="offset" />
          </mxGeometry>
        </mxCell>
        <mxCell id="ez5hYUiVbYZEbRt67O4f-16" style="edgeStyle=orthogonalEdgeStyle;rounded=1;orthogonalLoop=1;jettySize=auto;html=1;exitX=0;exitY=0.5;exitDx=0;exitDy=0;entryX=0;entryY=0.5;entryDx=0;entryDy=0;fontFamily=Vazir;fontSize=10;sketch=1;curved=1;" edge="1" parent="WIyWlLk6GJQsqaUBKTNV-1" source="WIyWlLk6GJQsqaUBKTNV-6" target="ez5hYUiVbYZEbRt67O4f-13">
          <mxGeometry relative="1" as="geometry">
            <Array as="points">
              <mxPoint x="230" y="215" />
              <mxPoint x="230" y="1150" />
            </Array>
          </mxGeometry>
        </mxCell>
        <mxCell id="WIyWlLk6GJQsqaUBKTNV-6" value="&lt;div style=&quot;font-size: 12px;&quot;&gt;گزارش&lt;br&gt;نیازمند امضایی برای&lt;br&gt; این کاربر وجود &lt;br style=&quot;font-size: 12px;&quot;&gt;&lt;/div&gt;&lt;div style=&quot;font-size: 12px;&quot;&gt;دارد ؟&lt;br style=&quot;font-size: 12px;&quot;&gt;&lt;/div&gt;" style="rhombus;whiteSpace=wrap;html=1;shadow=0;fontFamily=Vazir;fontSize=12;align=center;strokeWidth=1;spacing=6;spacingTop=-4;verticalAlign=middle;rounded=1;sketch=1;" parent="WIyWlLk6GJQsqaUBKTNV-1" vertex="1">
          <mxGeometry x="340" y="160" width="120" height="110" as="geometry" />
        </mxCell>
        <mxCell id="WIyWlLk6GJQsqaUBKTNV-8" value="Yes" style="rounded=1;html=1;jettySize=auto;orthogonalLoop=1;fontSize=11;endArrow=block;endFill=0;endSize=8;strokeWidth=1;shadow=0;labelBackgroundColor=none;edgeStyle=orthogonalEdgeStyle;fontFamily=Vazir;entryX=0.5;entryY=0;entryDx=0;entryDy=0;sketch=1;curved=1;labelBorderColor=none;" parent="WIyWlLk6GJQsqaUBKTNV-1" source="WIyWlLk6GJQsqaUBKTNV-10" target="ez5hYUiVbYZEbRt67O4f-0" edge="1">
          <mxGeometry x="0.3333" y="20" relative="1" as="geometry">
            <mxPoint as="offset" />
            <mxPoint x="400" y="489.9999999999999" as="targetPoint" />
          </mxGeometry>
        </mxCell>
        <mxCell id="WIyWlLk6GJQsqaUBKTNV-10" value="در این &lt;br&gt;لیست حداقل یک گزارش امضا نشده وجود دارد ؟" style="rhombus;whiteSpace=wrap;html=1;shadow=0;fontFamily=Vazir;fontSize=12;align=center;strokeWidth=1;spacing=6;spacingTop=-4;rounded=1;sketch=1;" parent="WIyWlLk6GJQsqaUBKTNV-1" vertex="1">
          <mxGeometry x="347.5" y="300" width="105" height="100" as="geometry" />
        </mxCell>
        <mxCell id="ez5hYUiVbYZEbRt67O4f-3" style="edgeStyle=orthogonalEdgeStyle;rounded=1;orthogonalLoop=1;jettySize=auto;html=1;exitX=0.5;exitY=1;exitDx=0;exitDy=0;entryX=0.5;entryY=0;entryDx=0;entryDy=0;fontFamily=Vazir;fontSize=12;sketch=1;curved=1;" edge="1" parent="WIyWlLk6GJQsqaUBKTNV-1" source="ez5hYUiVbYZEbRt67O4f-0" target="ez5hYUiVbYZEbRt67O4f-2">
          <mxGeometry relative="1" as="geometry" />
        </mxCell>
        <mxCell id="ez5hYUiVbYZEbRt67O4f-0" value="امضای&lt;br&gt; این گزارش&lt;br&gt; الزامی&lt;br&gt; است ؟" style="rhombus;whiteSpace=wrap;html=1;fontSize=12;fontFamily=Vazir;rounded=1;sketch=1;" vertex="1" parent="WIyWlLk6GJQsqaUBKTNV-1">
          <mxGeometry x="357.5" y="430" width="85" height="80" as="geometry" />
        </mxCell>
        <mxCell id="ez5hYUiVbYZEbRt67O4f-5" style="edgeStyle=orthogonalEdgeStyle;rounded=1;orthogonalLoop=1;jettySize=auto;html=1;exitX=0.5;exitY=1;exitDx=0;exitDy=0;entryX=0.5;entryY=0;entryDx=0;entryDy=0;fontFamily=Vazir;fontSize=12;sketch=1;curved=1;" edge="1" parent="WIyWlLk6GJQsqaUBKTNV-1" source="ez5hYUiVbYZEbRt67O4f-2" target="ez5hYUiVbYZEbRt67O4f-4">
          <mxGeometry relative="1" as="geometry" />
        </mxCell>
        <mxCell id="ez5hYUiVbYZEbRt67O4f-27" style="edgeStyle=orthogonalEdgeStyle;rounded=1;orthogonalLoop=1;jettySize=auto;html=1;exitX=1;exitY=0.5;exitDx=0;exitDy=0;entryX=0;entryY=0.5;entryDx=0;entryDy=0;fontFamily=Vazir;fontSize=10;sketch=1;curved=1;" edge="1" parent="WIyWlLk6GJQsqaUBKTNV-1" source="ez5hYUiVbYZEbRt67O4f-2" target="ez5hYUiVbYZEbRt67O4f-26">
          <mxGeometry relative="1" as="geometry" />
        </mxCell>
        <mxCell id="ez5hYUiVbYZEbRt67O4f-2" value="آیا &lt;br&gt;شماره موبایل &lt;br&gt;کاربر تایید شده &lt;br&gt;است ؟" style="rhombus;whiteSpace=wrap;html=1;fontSize=12;fontFamily=Vazir;labelBorderColor=none;rounded=1;sketch=1;" vertex="1" parent="WIyWlLk6GJQsqaUBKTNV-1">
          <mxGeometry x="357.5" y="540" width="85" height="80" as="geometry" />
        </mxCell>
        <mxCell id="ez5hYUiVbYZEbRt67O4f-10" style="edgeStyle=orthogonalEdgeStyle;rounded=1;orthogonalLoop=1;jettySize=auto;html=1;exitX=0.5;exitY=1;exitDx=0;exitDy=0;entryX=0.5;entryY=0;entryDx=0;entryDy=0;fontFamily=Vazir;fontSize=12;sketch=1;curved=1;" edge="1" parent="WIyWlLk6GJQsqaUBKTNV-1" source="ez5hYUiVbYZEbRt67O4f-4" target="ez5hYUiVbYZEbRt67O4f-8">
          <mxGeometry relative="1" as="geometry">
            <mxPoint x="400" y="790" as="targetPoint" />
          </mxGeometry>
        </mxCell>
        <mxCell id="ez5hYUiVbYZEbRt67O4f-4" value="ارسال کد به &lt;br&gt;شماره موبایل کاربر و &lt;br&gt;شروع کانتر 2 دقیقه&lt;br&gt;و محدودیت 5 &lt;br&gt;بار در روز" style="rhombus;whiteSpace=wrap;html=1;fontSize=12;fontFamily=Vazir;rounded=1;sketch=1;" vertex="1" parent="WIyWlLk6GJQsqaUBKTNV-1">
          <mxGeometry x="333.75" y="650" width="132.5" height="129" as="geometry" />
        </mxCell>
        <mxCell id="ez5hYUiVbYZEbRt67O4f-12" style="edgeStyle=orthogonalEdgeStyle;rounded=1;orthogonalLoop=1;jettySize=auto;html=1;exitX=0.5;exitY=1;exitDx=0;exitDy=0;fontFamily=Vazir;fontSize=12;entryX=0.5;entryY=0.25;entryDx=0;entryDy=0;entryPerimeter=0;sketch=1;curved=1;" edge="1" parent="WIyWlLk6GJQsqaUBKTNV-1" source="ez5hYUiVbYZEbRt67O4f-8" target="ez5hYUiVbYZEbRt67O4f-14">
          <mxGeometry relative="1" as="geometry">
            <mxPoint x="510" y="990" as="targetPoint" />
          </mxGeometry>
        </mxCell>
        <mxCell id="ez5hYUiVbYZEbRt67O4f-8" value="کاربر &lt;br&gt;کد دریافتی را صحیح وارد&lt;br&gt; کرده ؟" style="rhombus;whiteSpace=wrap;html=1;fontSize=12;fontFamily=Vazir;rounded=1;sketch=1;" vertex="1" parent="WIyWlLk6GJQsqaUBKTNV-1">
          <mxGeometry x="353.75" y="830" width="92.5" height="90" as="geometry" />
        </mxCell>
        <mxCell id="ez5hYUiVbYZEbRt67O4f-13" value="نمایش گزارش" style="shape=document;whiteSpace=wrap;html=1;boundedLbl=1;labelBorderColor=none;fontFamily=Vazir;fontSize=12;rounded=1;sketch=1;" vertex="1" parent="WIyWlLk6GJQsqaUBKTNV-1">
          <mxGeometry x="340" y="1110" width="120" height="80" as="geometry" />
        </mxCell>
        <mxCell id="ez5hYUiVbYZEbRt67O4f-15" style="edgeStyle=orthogonalEdgeStyle;rounded=1;orthogonalLoop=1;jettySize=auto;html=1;exitX=0.496;exitY=0.98;exitDx=0;exitDy=0;exitPerimeter=0;entryX=0.5;entryY=0;entryDx=0;entryDy=0;fontFamily=Vazir;fontSize=10;sketch=1;curved=1;" edge="1" parent="WIyWlLk6GJQsqaUBKTNV-1" source="ez5hYUiVbYZEbRt67O4f-14" target="ez5hYUiVbYZEbRt67O4f-13">
          <mxGeometry relative="1" as="geometry" />
        </mxCell>
        <mxCell id="ez5hYUiVbYZEbRt67O4f-14" value="&lt;font style=&quot;font-size: 13px;&quot;&gt;ارسال پیامک تایید &lt;br style=&quot;font-size: 13px;&quot;&gt;امضاهمراه با شماره &lt;br style=&quot;font-size: 13px;&quot;&gt;قابل پیگیری +&lt;br&gt; ثبت در دیتابیس&lt;br style=&quot;font-size: 13px;&quot;&gt;&lt;/font&gt;" style="ellipse;shape=cloud;whiteSpace=wrap;html=1;labelBorderColor=none;fontFamily=Vazir;fontSize=13;rounded=1;sketch=1;" vertex="1" parent="WIyWlLk6GJQsqaUBKTNV-1">
          <mxGeometry x="315" y="940" width="170" height="120" as="geometry" />
        </mxCell>
        <mxCell id="ez5hYUiVbYZEbRt67O4f-18" value="No" style="text;html=1;strokeColor=none;fillColor=none;align=center;verticalAlign=middle;whiteSpace=wrap;rounded=1;labelBorderColor=none;fontFamily=Vazir;fontSize=10;sketch=1;" vertex="1" parent="WIyWlLk6GJQsqaUBKTNV-1">
          <mxGeometry x="260" y="190" width="60" height="30" as="geometry" />
        </mxCell>
        <mxCell id="ez5hYUiVbYZEbRt67O4f-19" value="No" style="text;html=1;strokeColor=none;fillColor=none;align=center;verticalAlign=middle;whiteSpace=wrap;rounded=1;labelBorderColor=none;fontFamily=Vazir;fontSize=10;sketch=1;" vertex="1" parent="WIyWlLk6GJQsqaUBKTNV-1">
          <mxGeometry x="260" y="320" width="60" height="30" as="geometry" />
        </mxCell>
        <mxCell id="ez5hYUiVbYZEbRt67O4f-20" value="" style="endArrow=none;html=1;rounded=1;fontFamily=Vazir;fontSize=10;entryX=0;entryY=0.5;entryDx=0;entryDy=0;sketch=1;curved=1;" edge="1" parent="WIyWlLk6GJQsqaUBKTNV-1" target="WIyWlLk6GJQsqaUBKTNV-10">
          <mxGeometry width="50" height="50" relative="1" as="geometry">
            <mxPoint x="252" y="350" as="sourcePoint" />
            <mxPoint x="310" y="310" as="targetPoint" />
          </mxGeometry>
        </mxCell>
        <mxCell id="ez5hYUiVbYZEbRt67O4f-21" value="" style="endArrow=none;html=1;rounded=1;fontFamily=Vazir;fontSize=10;entryX=0;entryY=0.5;entryDx=0;entryDy=0;sketch=1;curved=1;" edge="1" parent="WIyWlLk6GJQsqaUBKTNV-1" target="ez5hYUiVbYZEbRt67O4f-0">
          <mxGeometry width="50" height="50" relative="1" as="geometry">
            <mxPoint x="237" y="470" as="sourcePoint" />
            <mxPoint x="320" y="440" as="targetPoint" />
          </mxGeometry>
        </mxCell>
        <mxCell id="ez5hYUiVbYZEbRt67O4f-22" value="No" style="text;html=1;strokeColor=none;fillColor=none;align=center;verticalAlign=middle;whiteSpace=wrap;rounded=1;labelBorderColor=none;fontFamily=Vazir;fontSize=10;sketch=1;" vertex="1" parent="WIyWlLk6GJQsqaUBKTNV-1">
          <mxGeometry x="260" y="440" width="60" height="30" as="geometry" />
        </mxCell>
        <mxCell id="ez5hYUiVbYZEbRt67O4f-24" value="No" style="text;html=1;strokeColor=none;fillColor=none;align=center;verticalAlign=middle;whiteSpace=wrap;rounded=1;labelBorderColor=none;fontFamily=Vazir;fontSize=10;sketch=1;" vertex="1" parent="WIyWlLk6GJQsqaUBKTNV-1">
          <mxGeometry x="446.25" y="555" width="60" height="30" as="geometry" />
        </mxCell>
        <mxCell id="ez5hYUiVbYZEbRt67O4f-29" style="edgeStyle=orthogonalEdgeStyle;rounded=1;orthogonalLoop=1;jettySize=auto;html=1;exitX=1;exitY=0.5;exitDx=0;exitDy=0;entryX=0;entryY=0.5;entryDx=0;entryDy=0;fontFamily=Vazir;fontSize=10;sketch=1;curved=1;" edge="1" parent="WIyWlLk6GJQsqaUBKTNV-1" source="ez5hYUiVbYZEbRt67O4f-26" target="ez5hYUiVbYZEbRt67O4f-28">
          <mxGeometry relative="1" as="geometry" />
        </mxCell>
        <mxCell id="ez5hYUiVbYZEbRt67O4f-36" style="edgeStyle=orthogonalEdgeStyle;rounded=1;orthogonalLoop=1;jettySize=auto;html=1;exitX=0.5;exitY=1;exitDx=0;exitDy=0;entryX=0.5;entryY=1;entryDx=0;entryDy=0;fontFamily=Vazir;fontSize=10;sketch=1;curved=1;" edge="1" parent="WIyWlLk6GJQsqaUBKTNV-1" source="ez5hYUiVbYZEbRt67O4f-26" target="ez5hYUiVbYZEbRt67O4f-33">
          <mxGeometry relative="1" as="geometry">
            <Array as="points">
              <mxPoint x="555" y="620" />
              <mxPoint x="555" y="667" />
              <mxPoint x="820" y="667" />
            </Array>
          </mxGeometry>
        </mxCell>
        <mxCell id="ez5hYUiVbYZEbRt67O4f-26" value="سامانه به&lt;br&gt;شاهکار متصل است؟" style="rhombus;whiteSpace=wrap;html=1;labelBorderColor=none;fontFamily=Vazir;fontSize=10;rounded=1;sketch=1;" vertex="1" parent="WIyWlLk6GJQsqaUBKTNV-1">
          <mxGeometry x="513" y="540" width="80" height="80" as="geometry" />
        </mxCell>
        <mxCell id="ez5hYUiVbYZEbRt67O4f-34" style="edgeStyle=orthogonalEdgeStyle;rounded=1;orthogonalLoop=1;jettySize=auto;html=1;exitX=1;exitY=0.5;exitDx=0;exitDy=0;entryX=0;entryY=0.5;entryDx=0;entryDy=0;fontFamily=Vazir;fontSize=10;sketch=1;curved=1;" edge="1" parent="WIyWlLk6GJQsqaUBKTNV-1" source="ez5hYUiVbYZEbRt67O4f-28" target="ez5hYUiVbYZEbRt67O4f-33">
          <mxGeometry relative="1" as="geometry" />
        </mxCell>
        <mxCell id="ez5hYUiVbYZEbRt67O4f-28" value="شاهکار &lt;br&gt;شماره موبایل را تایید می‌کند ؟" style="rhombus;whiteSpace=wrap;html=1;labelBorderColor=none;fontFamily=Vazir;fontSize=10;rounded=1;sketch=1;" vertex="1" parent="WIyWlLk6GJQsqaUBKTNV-1">
          <mxGeometry x="640" y="540" width="80" height="80" as="geometry" />
        </mxCell>
        <mxCell id="ez5hYUiVbYZEbRt67O4f-30" value="yes" style="text;html=1;strokeColor=none;fillColor=none;align=center;verticalAlign=middle;whiteSpace=wrap;rounded=1;labelBorderColor=none;fontFamily=Vazir;fontSize=10;sketch=1;" vertex="1" parent="WIyWlLk6GJQsqaUBKTNV-1">
          <mxGeometry x="580" y="555" width="60" height="30" as="geometry" />
        </mxCell>
        <mxCell id="ez5hYUiVbYZEbRt67O4f-38" style="edgeStyle=orthogonalEdgeStyle;rounded=1;orthogonalLoop=1;jettySize=auto;html=1;entryX=1;entryY=0.5;entryDx=0;entryDy=0;fontFamily=Vazir;fontSize=10;sketch=1;curved=1;" edge="1" parent="WIyWlLk6GJQsqaUBKTNV-1" target="ez5hYUiVbYZEbRt67O4f-4">
          <mxGeometry relative="1" as="geometry">
            <mxPoint x="885" y="582" as="sourcePoint" />
            <Array as="points">
              <mxPoint x="880" y="714" />
            </Array>
          </mxGeometry>
        </mxCell>
        <mxCell id="ez5hYUiVbYZEbRt67O4f-33" value="ارسال کد تاییدیه به موبایل کاربر و تایید موبایل" style="ellipse;whiteSpace=wrap;html=1;labelBorderColor=none;fontFamily=Vazir;fontSize=10;rounded=1;sketch=1;" vertex="1" parent="WIyWlLk6GJQsqaUBKTNV-1">
          <mxGeometry x="760" y="540" width="120" height="80" as="geometry" />
        </mxCell>
        <mxCell id="ez5hYUiVbYZEbRt67O4f-35" value="yes" style="text;html=1;strokeColor=none;fillColor=none;align=center;verticalAlign=middle;whiteSpace=wrap;rounded=1;labelBorderColor=none;fontFamily=Vazir;fontSize=10;sketch=1;" vertex="1" parent="WIyWlLk6GJQsqaUBKTNV-1">
          <mxGeometry x="710" y="553" width="60" height="31" as="geometry" />
        </mxCell>
        <mxCell id="ez5hYUiVbYZEbRt67O4f-37" value="No" style="text;html=1;strokeColor=none;fillColor=none;align=center;verticalAlign=middle;whiteSpace=wrap;rounded=1;labelBorderColor=none;fontFamily=Vazir;fontSize=10;sketch=1;" vertex="1" parent="WIyWlLk6GJQsqaUBKTNV-1">
          <mxGeometry x="506.25" y="610" width="60" height="30" as="geometry" />
        </mxCell>
      </root>
    </mxGraphModel>
  </diagram>
</mxfile>
